<mxfile host="app.diagrams.net" modified="2024-07-07T14:51:36.340Z" agent="Mozilla/5.0 (Windows NT 10.0; Win64; x64) AppleWebKit/537.36 (KHTML, like Gecko) Chrome/125.0.0.0 Safari/537.36" version="24.6.4" etag="XsDTAL-p3J9RHxh795uw" type="github">
  <diagram name="第 1 页" id="0l7naZuNnTeD3beg1BvP">
    <mxGraphModel>
      <root>
        <mxCell id="0" />
        <mxCell id="1" parent="0" />
      </root>
    </mxGraphModel>
  </diagram>
</mxfile>
